<?xml version="1.0" encoding="utf-8"?>
<!-- Generator: Adobe Illustrator 17.1.0, SVG Export Plug-In . SVG Version: 6.00 Build 0)  -->
<!DOCTYPE svg PUBLIC "-//W3C//DTD SVG 1.1//EN" "http://www.w3.org/Graphics/SVG/1.1/DTD/svg11.dtd">
<svg version="1.1" id="Layer_1" xmlns="http://www.w3.org/2000/svg" xmlns:xlink="http://www.w3.org/1999/xlink" x="0px" y="0px"
	 viewBox="0 0 612 792" enable-background="new 0 0 612 792" xml:space="preserve">
<polygon fill="#85AB8F" points="128.7,652.8 89.2,210.3 522.8,210.3 483.3,652.8 305.7,702 "/>
<polygon fill="#9DBCA5" points="306,664.4 449.5,624.6 483.2,246.5 306,246.5 "/>
<polygon fill="#EBEBEB" points="229.2,300.7 169.9,300.7 194.6,577.2 251.9,593.2 234.5,410.6 305.8,514.7 305.8,410.4 "/>
<polygon fill="#FFFFFF" points="387,300.7 368.9,500.7 305.8,410.4 305.8,514.7 359.6,593.2 417.1,577.2 441.8,300.7 "/>
<g>
	<g>
		<path fill="#FFCC66" d="M176,185h-20.4l-43.5-43.9V185H84.3V91.7h20.4l43.5,43.7V91.7H176V185z"/>
		<path d="M152.2,95.7v44.6c0,0.9,0.1,2.6,0.2,5c-0.6-0.7-1.3-1.3-2-2l-47.3-47.6H88.3V181h19.8v-45.9c0-1.2,0-2.4-0.1-3.8
			l49.2,49.7H172V95.7H152.2z"/>
	</g>
	<g>
		<path fill="#FFCC66" d="M252.6,185h-41.9c-7.4,0-12.4-1.4-15.8-4.4c-3.6-3.2-5.3-8.2-5.3-15.4v-28.5c0-7.3,1.8-12.4,5.4-15.5
			c3.4-2.9,8.4-4.3,15.7-4.3h41.9c7.4,0,12.4,1.4,15.7,4.3c3.6,3.1,5.4,8.2,5.4,15.5v28.5c0,7.2-1.8,12.3-5.4,15.5
			C264.9,183.6,259.9,185,252.6,185z M216.8,160.6h29.5v-19.8h-29.5V160.6z"/>
		<path d="M265.7,124.2c-2.6-2.2-6.8-3.3-13.1-3.3h-41.9c-6.3,0-10.6,1.1-13.1,3.3c-2.7,2.3-4,6.4-4,12.5v28.5c0,6,1.3,10.1,4,12.4
			c2.6,2.3,6.9,3.4,13.2,3.4h41.9c6.2,0,10.5-1.1,13.1-3.4c2.7-2.4,4-6.4,4-12.4v-28.5C269.7,130.6,268.4,126.5,265.7,124.2z
			 M250.4,136.8v27.8h-37.5v-27.8H250.4z"/>
	</g>
	<g>
		<path fill="#FFCC66" d="M335.9,185h-33.8c-7.4,0-12.5-1.4-15.9-4.5c-3.5-3.2-5.2-8.2-5.2-15.3v-28.5c0-7.2,1.7-12.2,5.3-15.4
			c3.4-3,8.4-4.4,15.8-4.4h33.8c7.4,0,12.4,1.4,15.8,4.3c3.6,3.2,5.4,8.2,5.4,15.5V148l-14.7,2.1l14.7,3v12.1
			c0,7.2-1.8,12.3-5.4,15.5C348.3,183.6,343.3,185,335.9,185z M308.4,160.6h21.5v-19.8h-21.5V160.6z"/>
		<path d="M353.1,144.5v-7.8c0-6-1.3-10.1-4-12.4c-2.6-2.3-6.9-3.4-13.2-3.4h-33.8c-6.3,0-10.6,1.1-13.1,3.4
			c-2.7,2.4-3.9,6.4-3.9,12.4v28.5c0,5.9,1.3,9.9,3.9,12.3c2.6,2.3,6.9,3.5,13.2,3.5h33.8c6.3,0,10.6-1.1,13.2-3.4
			c2.7-2.4,4-6.4,4-12.4v-8.9l-19.3-3.9v12.2h-29.5v-27.8h29.5v10.4L353.1,144.5z"/>
	</g>
	<g>
		<polygon fill="#FFCC66" points="446.5,185 419.3,185 419.3,162.2 392.1,162.2 392.1,185 364.8,185 364.8,116.9 392.1,116.9 
			392.1,137.5 419.3,137.5 419.3,116.9 446.5,116.9 		"/>
		<polygon points="423.3,120.9 423.3,141.5 388.1,141.5 388.1,120.9 368.8,120.9 368.8,181 388.1,181 388.1,158.2 423.3,158.2 
			423.3,181 442.5,181 442.5,120.9 		"/>
	</g>
	<g>
		<polygon fill="#FFCC66" points="529.4,185 456.7,185 456.7,116.9 528.8,116.9 528.8,140.5 510.1,140.5 510.1,160.9 529.4,160.9 		
			"/>
		<polygon points="480,164.9 480,157.6 506.1,157.6 506.1,142.2 480,142.2 480,136.5 524.8,136.5 524.8,120.9 460.7,120.9 
			460.7,181 525.4,181 525.4,164.9 		"/>
	</g>
	<g>
		<rect x="189.5" y="91.7" fill="#FFCC66" width="339.2" height="20"/>
		<rect x="193.5" y="95.7" width="331.2" height="12"/>
	</g>
</g>
</svg>
